Coordinates
version=1
nRows=11
nColumns=40
inDegrees=yes

Units are S.I. units (second, meters, Newtons, ...)
Angles are in degrees.

endheader
time	pelvis_tilt	pelvis_list	pelvis_rotation	pelvis_tx	pelvis_ty	pelvis_tz	hip_flexion_r	hip_adduction_r	hip_rotation_r	knee_angle_r	knee_angle_r_beta	ankle_angle_r	subtalar_angle_r	mtp_angle_r	hip_flexion_l	hip_adduction_l	hip_rotation_l	knee_angle_l	knee_angle_l_beta	ankle_angle_l	subtalar_angle_l	mtp_angle_l	lumbar_extension	lumbar_bending	lumbar_rotation	arm_flex_r	arm_add_r	arm_rot_r	elbow_flex_r	pro_sup_r	wrist_flex_r	wrist_dev_r	arm_flex_l	arm_add_l	arm_rot_l	elbow_flex_l	pro_sup_l	wrist_flex_l	wrist_dev_l
     27.03000000	     -8.59750156	     -5.70722735	      2.32124948	      0.81820855	      0.92032428	      0.46979865	      2.98233297	      1.62920737	    -14.52082970	     18.93361360	     18.93361360	     16.55503830	      3.61886559	     -3.94057887	     30.66960080	     -5.88695148	      3.15965068	     27.81295130	     27.81295130	      8.47254026	    -14.28593846	     10.21865991	     -9.95072173	      6.74272196	      3.40077534	     25.09152309	    -12.08726749	      2.51674995	     76.57638425	     44.98955503	      0.00000000	      0.00000000	     -1.33913631	    -10.58832365	    -11.61738143	     45.82293687	     46.11221895	      0.00000000	      0.00000000
     27.04342857	     -8.77612529	     -5.53300699	      2.25534978	      0.81830981	      0.92052547	      0.46675267	      3.39626302	      0.99066465	    -14.53830454	     20.16128591	     20.16128591	     15.70109998	      3.30755777	     -6.51915420	     30.38043841	     -5.58923840	      2.87510873	     27.95806788	     27.95806788	      9.36762809	    -14.00545661	     10.87735560	     -9.75412451	      6.63121018	      3.52904242	     24.61802680	    -12.02192059	      2.24684507	     72.47890674	     45.15424951	      0.00000000	      0.00000000	     -2.02469097	    -11.04662418	    -10.54406024	     48.56324116	     46.08957173	      0.00000000	      0.00000000
     27.05685714	     -8.85986602	     -5.46870692	      2.22477023	      0.81839178	      0.92082670	      0.46378576	      3.95189692	      0.42576645	    -14.49752780	     21.89142627	     21.89142627	     15.46888815	      2.96810422	     -7.11093896	     29.90906702	     -5.38851285	      2.69633428	     27.91210614	     27.91210614	      9.88813713	    -13.84962344	     10.64065472	     -9.73967852	      6.69406876	      3.95649806	     23.20861005	    -12.43484600	      2.12085816	     70.89641393	     45.20716849	      0.00000000	      0.00000000	     -1.75544559	    -11.07627914	    -10.60247348	     49.16530809	     46.10943246	      0.00000000	      0.00000000
     27.07028571	     -8.96739777	     -5.43215640	      2.17287504	      0.81835068	      0.92100074	      0.46103015	      4.68315460	     -0.08292649	    -14.20167180	     23.72305247	     23.72305247	     14.09241023	      1.85582751	    -10.52522236	     29.45952040	     -5.23358016	      2.53752410	     27.84600858	     27.84600858	     10.34857768	    -13.69817013	     10.27514306	     -9.62971707	      6.72636509	      3.62072980	     22.82635232	    -11.87656722	      1.54996045	     66.87904089	     45.36220448	      0.00000000	      0.00000000	     -2.48620740	    -11.43588780	    -10.41634317	     51.14596910	     46.18198552	      0.00000000	      0.00000000
     27.08371429	     -9.05830586	     -5.38751650	      2.07409414	      0.81812027	      0.92116183	      0.45845322	      5.80516020	     -0.63576277	    -13.64386492	     26.29489957	     26.29489957	     13.07948214	      0.41316169	    -12.46351194	     28.96331989	     -5.10941482	      2.30273696	     27.72043118	     27.72043118	     10.83526762	    -13.48500040	      9.93894069	     -9.59097222	      6.73878361	      3.68448086	     21.91083427	    -11.76613048	      0.95245736	     63.95926617	     45.47662761	      0.00000000	      0.00000000	     -2.63919873	    -11.69024039	    -10.21581581	     52.22422540	     46.20713724	      0.00000000	      0.00000000
     27.09714286	     -9.10193326	     -5.32513520	      2.00444767	      0.81775392	      0.92125606	      0.45591494	      7.15510678	     -1.23207382	    -13.01351588	     29.28535267	     29.28535267	     11.53654873	     -1.47394135	    -15.27759744	     28.46658373	     -4.96101776	      2.08776366	     27.65730329	     27.65730329	     11.27849983	    -13.28477433	      9.54296508	     -9.61954014	      6.73320738	      3.51754417	     21.07392736	    -11.64421607	      0.52935417	     60.99157276	     45.58146251	      0.00000000	      0.00000000	     -2.88996850	    -12.00774219	    -10.02529543	     53.43779746	     46.24230521	      0.00000000	      0.00000000
     27.11057143	     -9.08529042	     -5.18560762	      1.90157002	      0.81720280	      0.92132720	      0.45345355	      8.83970918	     -2.02899669	    -12.47732697	     33.03341638	     33.03341638	     10.43994689	     -2.76211093	    -16.10200812	     27.91296181	     -4.74976536	      1.82309944	     27.60965624	     27.60965624	     11.77712989	    -13.10100808	      9.27695373	     -9.77842013	      6.65096893	      3.59439254	     19.64541155	    -12.03398824	      0.48605596	     59.68775798	     45.61989199	      0.00000000	      0.00000000	     -2.64776706	    -12.16707904	    -10.11000189	     53.88374228	     46.26242847	      0.00000000	      0.00000000
     27.12400000	     -9.13462546	     -5.18708747	      1.77795683	      0.81650273	      0.92124910	      0.45137170	     10.71107384	     -2.39932418	    -11.35075864	     36.63386123	     36.63386123	      7.75952543	     -6.04697207	    -19.53732122	     27.47796144	     -4.71472338	      1.58873337	     27.59192454	     27.59192454	     12.18943054	    -12.89060654	      8.74887536	     -9.77876720	      6.67006299	      3.24587656	     19.17253817	    -11.65729497	     -0.34620529	     55.59723060	     45.77680081	      0.00000000	      0.00000000	     -3.09472958	    -12.71864783	     -9.48890336	     55.37220499	     46.26675022	      0.00000000	      0.00000000
     27.13742857	     -9.08196936	     -5.01670534	      1.65271082	      0.81571152	      0.92117584	      0.44923703	     12.78871267	     -3.15127789	    -10.65318505	     40.88717421	     40.88717421	      5.94881087	     -7.66851058	    -19.88916433	     26.91235216	     -4.48726324	      1.32713092	     27.55464945	     27.55464945	     12.69346448	    -12.76709191	      8.48381371	     -9.96652878	      6.52232000	      3.17281609	     17.65542210	    -12.05394718	     -0.39779690	     54.37582465	     45.81163872	      0.00000000	      0.00000000	     -2.86699901	    -12.90913467	     -9.57807113	     55.76648683	     46.28709040	      0.00000000	      0.00000000
     27.15085714	     -9.05217285	     -5.02695381	      1.51367171	      0.81480076	      0.92103333	      0.44748621	     14.97669197	     -3.37834804	     -9.50276224	     44.95764043	     44.95764043	      3.18544115	    -10.84764207	    -20.76514767	     26.44930833	     -4.49297614	      1.06641406	     27.60259445	     27.60259445	     13.12219445	    -12.54548126	      7.96774987	    -10.05427261	      6.55287717	      2.95409056	     16.83410278	    -12.02416601	     -1.10643493	     50.97147992	     45.94055213	      0.00000000	      0.00000000	     -3.04184996	    -13.40464170	     -8.91035121	     56.95937058	     46.28314067	      0.00000000	      0.00000000
     27.16428571	     -8.89089888	     -4.81373912	      1.39692824	      0.81388047	      0.92092974	      0.44554363	     17.12537578	     -4.08034800	     -8.89050038	     49.18021946	     49.18021946	      0.86348467	    -12.39770599	    -20.37322601	     25.83092107	     -4.21751489	      0.83014235	     27.66008961	     27.66008961	     13.60902349	    -12.49250113	      7.70883620	    -10.34668788	      6.38116766	      2.64140598	     15.33719855	    -12.42794094	     -1.21076583	     49.86215746	     45.97427418	      0.00000000	      0.00000000	     -2.81722106	    -13.68713223	     -8.97839341	     57.28705362	     46.30025815	      0.00000000	      0.00000000
